# xmcd
#
# Track frame offsets:
# 150
# 12220
# 21237
# 35352
# 49320
# 57752
# 72792
# 88715
# 100920
# 109972
#
# Disc length: 1603 seconds
#
#
# Revision: 0
# Processed by: cddbd v1.4PL0 Copyright (c) Steve Scherf et al.
# Submitted via: FreeRIP 2.30 
#
DISCID=7e06410a
DTITLE=Various Artist - Brasil Super Sucesso
DYEAR=1900
DGENRE=Country
TTITLE0=Maro Zan - Festa na Roça
TTITLE1=Mariano da Silva e Serrinha - Saudades de Matão
TTITLE2=Sulino e Marrueiro - Promessa do Batistinha
TTITLE3=Silveira e Barrinha - Coração Apaixonado
TTITLE4=Nenete e Dorinho - Vinte Anos
TTITLE5=Zé do Rancho e Zé do Pinho - Chitãozinho e Xororó
TTITLE6=Zilo e Galo - O Milagre do Ladrão
TTITLE7=Duo Ciriema - Não Beba Mais Não
TTITLE8=Tonico e Tinoco - Canta Moçada
TTITLE9=Leo Canhoto e Robertinho - Apartamento 37
EXTD=
EXTT0=
EXTT1=
EXTT2=
EXTT3=
EXTT4=
EXTT5=
EXTT6=
EXTT7=
EXTT8=
EXTT9=
PLAYORDER=
